<svg xmlns="http://www.w3.org/2000/svg" viewBox="0 0 170 153">
<path fill="currentColor" d="M89.6667 10.3333C89.2222 10.7778 90.2778 10.7222 90.3333 10.6667C90.7778 10.2222 89.7222 10.2778 89.6667 10.3333z"/>
<path fill="currentColor" d="M91 10L92 11L91 10z"/>
<path fill="currentColor" d="M87 11L88 12L87 11z"/>
<path fill="currentColor" d="M88 11L89 12L88 11z"/>
<path fill="currentColor" d="M36 136C41.0298 135.603 45.9554 134.261 51 134.039C61.6831 133.571 72.3041 135 83 135L83 131C84.6352 131.545 84.4549 131.365 85 133C89.4225 130.54 94.0688 131 99 131L99 135C115.113 136.272 132.237 134.117 148 138C148 128.233 149.032 117.132 144.86 108C141.546 100.744 134.926 94.2115 130.003 88C123.021 79.1904 116.731 69.8517 109.79 61C105.569 55.6172 99.1293 49.461 96.7384 43C94.1223 35.9304 96 25.4843 96 18C92.71 18 92.8122 13.8059 92 11C78.0933 13.9598 86.6319 36.4252 83.0054 46C80.4727 52.6869 74.9526 59.0596 71 65C65.2794 73.5976 59.9211 82.4323 54.1636 91C50.51 96.4369 45.8465 102.026 43.1389 108C42.1424 110.199 42.2788 112.618 41.4159 114.83C40.3851 117.473 38.0877 119.369 37.0085 122.015C35.2783 126.256 36 131.512 36 136z"/>
<path fill="currentColor" d="M92.3333 11.6667C92.2778 11.7222 92.2222 12.7778 92.6667 12.3333C92.7222 12.2778 92.7778 11.2222 92.3333 11.6667z"/>
<path fill="currentColor" d="M86 12L87 13L86 12z"/>
<path fill="currentColor" d="M93 12L93 15L95 14C94.4549 12.3648 94.6352 12.5451 93 12z"/>
<path fill="currentColor" d="M86 13L87 14L86 13z"/>
<path fill="currentColor" d="M85 14L86 15L85 14z"/>
<path fill="currentColor" d="M93 16L96 16L95 14C93.3648 14.5451 93.5451 14.3648 93 16z"/>
<path fill="currentColor" d="M95 14L96 15L95 14z"/>
<path fill="currentColor" d="M85 15L86 16L85 15z"/>
<path fill="currentColor" d="M84 16L85 17L84 16z"/>
<path fill="currentColor" d="M93 16C93.6913 17.3884 93.9846 17.8606 95 19C95.9857 17.5215 96 17.7968 96 16L93 16z"/>
<path fill="currentColor" d="M84 17L85 18L84 17z"/>
<path fill="currentColor" d="M96 17L97 18L96 17z"/>
<path fill="currentColor" d="M84 18L85 19L84 18z"/>
<path fill="currentColor" d="M96.3333 18.6667C96.2778 18.7222 96.2222 19.7778 96.6667 19.3333C96.7223 19.2777 96.7777 18.2223 96.3333 18.6667z"/>
<path fill="currentColor" d="M96 20L96 23C96.6961 21.4463 96.6961 21.5537 96 20z"/>
<path fill="currentColor" d="M83 21L83 24C83.6961 22.4463 83.6961 22.5537 83 21z"/>
<path fill="currentColor" d="M97.3333 21.6667C97.2778 21.7222 97.2222 22.7778 97.6667 22.3333C97.7223 22.2777 97.7777 21.2223 97.3333 21.6667z"/>
<path fill="currentColor" d="M96 23L96 44C98.153 38.8692 98.153 28.1308 96 23z"/>
<path fill="currentColor" d="M97 23L97 45C99.2187 39.7127 99.2187 28.2873 97 23z"/>
<path fill="currentColor" d="M83 24L83 36C84.5124 32.3957 84.5124 27.6043 83 24z"/>
<path fill="currentColor" d="M83 36L83 45C84.2561 42.0059 84.2561 38.9941 83 36z"/>
<path fill="currentColor" d="M75 44L75 57C76.5909 53.2087 76.5909 47.7913 75 44z"/>
<path fill="currentColor" d="M76 44L76 56C77.9247 52.6712 77.4834 47.5337 76 44z"/>
<path fill="currentColor" d="M83 45L84 46L83 45z"/>
<path fill="currentColor" d="M97 45L98 46L97 45z"/>
<path fill="currentColor" d="M98 45L99 46L98 45z"/>
<path fill="currentColor" d="M82 46L83 47L82 46z"/>
<path fill="currentColor" d="M98 46L99 47L98 46z"/>
<path fill="currentColor" d="M82 47L83 48L82 47z"/>
<path fill="currentColor" d="M99 47L100 48L99 47z"/>
<path fill="currentColor" d="M81 48L82 49L81 48z"/>
<path fill="currentColor" d="M100 48L101 49L100 48z"/>
<path fill="currentColor" d="M80 49L81 50L80 49z"/>
<path fill="currentColor" d="M81 49L82 50L81 49z"/>
<path fill="currentColor" d="M106 49L107 50L106 49z"/>
<path fill="currentColor" d="M109 49L109 56C110.059 53.4657 110.059 51.5343 109 49z"/>
<path fill="currentColor" d="M110 49L110 61C111.512 57.3957 111.512 52.6043 110 49z"/>
<path fill="currentColor" d="M80 50L81 51L80 50z"/>
<path fill="currentColor" d="M101 50L102 51L101 50z"/>
<path fill="currentColor" d="M105 50C104.806 51.8566 104.79 53.1533 105 55C105.83 52.9695 105.83 52.0305 105 50z"/>
<path fill="currentColor" d="M106 50L106 57C107.059 54.4657 107.059 52.5343 106 50z"/>
<path fill="currentColor" d="M79 51L80 52L79 51z"/>
<path fill="currentColor" d="M102 51L103 52L102 51z"/>
<path fill="currentColor" d="M79 52L80 53L79 52z"/>
<path fill="currentColor" d="M103 52L104 53L103 52z"/>
<path fill="currentColor" d="M78 53L79 54L78 53z"/>
<path fill="currentColor" d="M104 54L105 55L104 54z"/>
<path fill="currentColor" d="M77 55L78 56L77 55z"/>
<path fill="currentColor" d="M105 55L106 56L105 55z"/>
<path fill="currentColor" d="M109 56C108.782 57.6865 108.776 58.3161 109 60C109.71 58.2405 109.71 57.7595 109 56z"/>
<path fill="currentColor" d="M75 57L76 58L75 57z"/>
<path fill="currentColor" d="M107 57L108 58L107 57z"/>
<path fill="currentColor" d="M75 58L76 59L75 58z"/>
<path fill="currentColor" d="M107 58L108 59L107 58z"/>
<path fill="currentColor" d="M74 59L75 60L74 59z"/>
<path fill="currentColor" d="M108 59L109 60L108 59z"/>
<path fill="currentColor" d="M73 60L74 61L73 60z"/>
<path fill="currentColor" d="M109 60L110 61L109 60z"/>
<path fill="currentColor" d="M73 61L74 62L73 61z"/>
<path fill="currentColor" d="M110 61L111 62L110 61z"/>
<path fill="currentColor" d="M72 62L73 63L72 62z"/>
<path fill="currentColor" d="M111 62L112 63L111 62z"/>
<path fill="currentColor" d="M71 63L72 64L71 63z"/>
<path fill="currentColor" d="M111 63L112 64L111 63z"/>
<path fill="currentColor" d="M71 64L72 65L71 64z"/>
<path fill="currentColor" d="M112 64L113 65L112 64z"/>
<path fill="currentColor" d="M70 65L71 66L70 65z"/>
<path fill="currentColor" d="M113 65L114 66L113 65z"/>
<path fill="currentColor" d="M69 66L70 67L69 66z"/>
<path fill="currentColor" d="M114 66L115 67L114 66z"/>
<path fill="currentColor" d="M68 67L69 68L68 67z"/>
<path fill="currentColor" d="M69 67L70 68L69 67z"/>
<path fill="currentColor" d="M114 67L115 68L114 67z"/>
<path fill="currentColor" d="M68 68L69 69L68 68z"/>
<path fill="currentColor" d="M115 68L116 69L115 68z"/>
<path fill="currentColor" d="M67 69L68 70L67 69z"/>
<path fill="currentColor" d="M116 69L117 70L116 69z"/>
<path fill="currentColor" d="M67 70L68 71L67 70z"/>
<path fill="currentColor" d="M117 70L118 71L117 70z"/>
<path fill="currentColor" d="M66 71L67 72L66 71z"/>
<path fill="currentColor" d="M65 72L66 73L65 72z"/>
<path fill="currentColor" d="M118 72L119 73L118 72z"/>
<path fill="currentColor" d="M65 73L66 74L65 73z"/>
<path fill="currentColor" d="M119 73L120 74L119 73z"/>
<path fill="currentColor" d="M64 74L65 75L64 74z"/>
<path fill="currentColor" d="M120 74L121 75L120 74z"/>
<path fill="currentColor" d="M63 75L64 76L63 75z"/>
<path fill="currentColor" d="M120 75L121 76L120 75z"/>
<path fill="currentColor" d="M63 76L64 77L63 76z"/>
<path fill="currentColor" d="M121 76L122 77L121 76z"/>
<path fill="currentColor" d="M62 77L63 78L62 77z"/>
<path fill="currentColor" d="M122 77L123 78L122 77z"/>
<path fill="currentColor" d="M62 78L63 79L62 78z"/>
<path fill="currentColor" d="M61 79L62 80L61 79z"/>
<path fill="currentColor" d="M123 79L124 80L123 79z"/>
<path fill="currentColor" d="M60 80L61 81L60 80z"/>
<path fill="currentColor" d="M124 80L125 81L124 80z"/>
<path fill="currentColor" d="M125 81L126 82L125 81z"/>
<path fill="currentColor" d="M59 82L60 83L59 82z"/>
<path fill="currentColor" d="M125 82L126 83L125 82z"/>
<path fill="currentColor" d="M58 83L59 84L58 83z"/>
<path fill="currentColor" d="M126 83L127 84L126 83z"/>
<path fill="currentColor" d="M58 84L59 85L58 84z"/>
<path fill="currentColor" d="M127 84L128 85L127 84z"/>
<path fill="currentColor" d="M57 85L58 86L57 85z"/>
<path fill="currentColor" d="M128 85L129 86L128 85z"/>
<path fill="currentColor" d="M57 86L58 87L57 86z"/>
<path fill="currentColor" d="M128 86L129 87L128 86z"/>
<path fill="currentColor" d="M56 87L57 88L56 87z"/>
<path fill="currentColor" d="M129 87L130 88L129 87z"/>
<path fill="currentColor" d="M55 88L56 89L55 88z"/>
<path fill="currentColor" d="M130 88L131 89L130 88z"/>
<path fill="currentColor" d="M131 89L132 90L131 89z"/>
<path fill="currentColor" d="M54 90L55 91L54 90z"/>
<path fill="currentColor" d="M132 90L133 91L132 90z"/>
<path fill="currentColor" d="M53 91L54 92L53 91z"/>
<path fill="currentColor" d="M132 91L133 92L132 91z"/>
<path fill="currentColor" d="M52 92L53 93L52 92z"/>
<path fill="currentColor" d="M53 92L54 93L53 92z"/>
<path fill="currentColor" d="M133 92L134 93L133 92z"/>
<path fill="currentColor" d="M52 93L53 94L52 93z"/>
<path fill="currentColor" d="M134 93L135 94L134 93z"/>
<path fill="currentColor" d="M51 94L52 95L51 94z"/>
<path fill="currentColor" d="M135 94L136 95L135 94z"/>
<path fill="currentColor" d="M50 95L51 96L50 95z"/>
<path fill="currentColor" d="M136 95L137 96L136 95z"/>
<path fill="currentColor" d="M50 96L51 97L50 96z"/>
<path fill="currentColor" d="M136 96L137 97L136 96z"/>
<path fill="currentColor" d="M49 97L50 98L49 97z"/>
<path fill="currentColor" d="M137 97L138 98L137 97z"/>
<path fill="currentColor" d="M48 98L49 99L48 98z"/>
<path fill="currentColor" d="M138 98L139 99L138 98z"/>
<path fill="currentColor" d="M48 99L49 100L48 99z"/>
<path fill="currentColor" d="M47 100L48 101L47 100z"/>
<path fill="currentColor" d="M139 100L140 101L139 100z"/>
<path fill="currentColor" d="M46 101L47 102L46 101z"/>
<path fill="currentColor" d="M47 101L48 102L47 101z"/>
<path fill="currentColor" d="M140 101L141 102L140 101z"/>
<path fill="currentColor" d="M46 102L47 103L46 102z"/>
<path fill="currentColor" d="M141 102L142 103L141 102z"/>
<path fill="currentColor" d="M45 103L46 104L45 103z"/>
<path fill="currentColor" d="M142 103L143 104L142 103z"/>
<path fill="currentColor" d="M45 104L46 105L45 104z"/>
<path fill="currentColor" d="M142 104L143 105L142 104z"/>
<path fill="currentColor" d="M44 105L45 106L44 105z"/>
<path fill="currentColor" d="M143 105L144 106L143 105z"/>
<path fill="currentColor" d="M43 106L44 107L43 106z"/>
<path fill="currentColor" d="M144 106L145 107L144 106z"/>
<path fill="currentColor" d="M42 107L43 108L42 107z"/>
<path fill="currentColor" d="M145 107L146 108L145 107z"/>
<path fill="currentColor" d="M42 108L43 109L42 108z"/>
<path fill="currentColor" d="M145 108L146 109L145 108z"/>
<path fill="currentColor" d="M146 108L147 109L146 108z"/>
<path fill="currentColor" d="M41 109L42 110L41 109z"/>
<path fill="currentColor" d="M146 109L146 117C147.161 114.23 147.161 111.77 146 109z"/>
<path fill="currentColor" d="M40 110L40 116C40.9511 113.715 40.9511 112.285 40 110z"/>
<path fill="currentColor" d="M41 110L41 117C42.0595 114.466 42.0595 112.534 41 110z"/>
<path fill="currentColor" d="M147 110L147 117C148.059 114.466 148.059 112.534 147 110z"/>
<path fill="currentColor" d="M40 116L41 117L40 116z"/>
<path fill="currentColor" d="M39 117L40 118L39 117z"/>
<path fill="currentColor" d="M148 117L148 121C148.71 119.241 148.71 118.759 148 117z"/>
<path fill="currentColor" d="M38 118L39 119L38 118z"/>
<path fill="currentColor" d="M37 120L38 121L37 120z"/>
<path fill="currentColor" d="M36 121L37 122L36 121z"/>
<path fill="currentColor" d="M148 121L148 124C148.696 122.446 148.696 122.554 148 121z"/>
<path fill="currentColor" d="M36 122L37 123L36 122z"/>
<path fill="currentColor" d="M35 123L36 124L35 123z"/>
<path fill="currentColor" d="M35 124L36 125L35 124z"/>
<path fill="currentColor" d="M148 124L148 127C148.696 125.446 148.696 125.554 148 124z"/>
<path fill="currentColor" d="M149 124L149 141C150.883 136.514 150.883 128.486 149 124z"/>
<path fill="currentColor" d="M34 125L34 136C35.4309 132.59 35.4309 128.41 34 125z"/>
<path fill="currentColor" d="M35 125L35 136C36.4309 132.59 36.4309 128.41 35 125z"/>
<path fill="currentColor" d="M148 127C148 131.321 147.53 135.727 148 140C149.591 136.209 149.591 130.791 148 127z"/>
<path fill="currentColor" d="M83.3333 131.667C83.2778 131.722 83.2222 132.778 83.6667 132.333C83.7222 132.278 83.7778 131.222 83.3333 131.667z"/>
<path fill="currentColor" d="M84.3333 131.667C84.2778 131.722 84.2222 132.778 84.6667 132.333C84.7222 132.278 84.7778 131.222 84.3333 131.667z"/>
<path fill="currentColor" d="M86 131L85 137C87.3581 137.659 88.2432 138.267 90 140L96 138L96 131L86 131z"/>
<path fill="currentColor" d="M96 131L96 134C96.6961 132.446 96.6961 132.554 96 131z"/>
<path fill="currentColor" d="M97 131L96 136C98.729 136.81 101.15 136.979 104 137C101.948 136.126 100.253 136.047 98 136C97.9124 134.036 97.7789 132.769 97 131z"/>
<path fill="currentColor" d="M98 131L98 136L104 136C102.231 135.221 100.964 135.088 99 135C98.8259 133.315 98.683 132.506 98 131z"/>
<path fill="currentColor" d="M83.3333 133.667C83.2778 133.722 83.2222 134.778 83.6667 134.333C83.7222 134.278 83.7778 133.222 83.3333 133.667z"/>
<path fill="currentColor" d="M84.3333 133.667C84.2778 133.722 84.2222 134.778 84.6667 134.333C84.7222 134.278 84.7778 133.222 84.3333 133.667z"/>
<path fill="currentColor" d="M85 133L86 134L85 133z"/>
<path fill="currentColor" d="M46.6667 134.333C46.2222 134.778 47.2778 134.722 47.3333 134.667C47.7778 134.222 46.7222 134.278 46.6667 134.333z"/>
<path fill="currentColor" d="M48 134C51.1633 135.327 54.5856 135 58 135C54.8367 133.673 51.4144 134 48 134z"/>
<path fill="currentColor" d="M58 134C60.8897 135.213 63.8741 134.998 67 135C64.1103 133.787 61.1259 134.002 58 134z"/>
<path fill="currentColor" d="M85 134L86 135L85 134z"/>
<path fill="currentColor" d="M40 135C41.2484 135.685 41.5484 135.749 43 136C41.7517 135.315 41.4516 135.251 40 135z"/>
<path fill="currentColor" d="M43.6667 135.333C43.2222 135.778 44.2778 135.722 44.3333 135.667C44.7778 135.222 43.7222 135.278 43.6667 135.333z"/>
<path fill="currentColor" d="M48 135C51.1633 136.327 54.5856 136 58 136C54.8367 134.673 51.4144 135 48 135z"/>
<path fill="currentColor" d="M58 135C60.8897 136.213 63.8741 135.998 67 136C64.1103 134.787 61.1259 135.002 58 135z"/>
<path fill="currentColor" d="M67 135C69.8897 136.213 72.8741 135.998 76 136C73.1103 134.787 70.1259 135.002 67 135z"/>
<path fill="currentColor" d="M76 135C78.3315 135.985 80.4567 135.981 83 136C80.6684 135.015 78.5434 135.019 76 135z"/>
<path fill="currentColor" d="M83 135L84 136L83 135z"/>
<path fill="currentColor" d="M84.3333 135.667C84.2778 135.722 84.2222 136.778 84.6667 136.333C84.7222 136.278 84.7778 135.222 84.3333 135.667z"/>
<path fill="currentColor" d="M35 136L36 137L35 136z"/>
<path fill="currentColor" d="M36.6667 136.333C36.2222 136.778 37.2778 136.722 37.3333 136.667C37.7778 136.222 36.7222 136.278 36.6667 136.333z"/>
<path fill="currentColor" d="M38.6667 136.333C38.2222 136.778 39.2778 136.722 39.3333 136.667C39.7778 136.222 38.7222 136.278 38.6667 136.333z"/>
<path fill="currentColor" d="M40.6667 136.333C40.2222 136.778 41.2778 136.722 41.3333 136.667C41.7778 136.222 40.7222 136.278 40.6667 136.333z"/>
<path fill="currentColor" d="M96 136L97 137L96 136z"/>
<path fill="currentColor" d="M104 136C106.89 137.213 109.874 136.998 113 137C110.11 135.787 107.126 136.002 104 136z"/>
<path fill="currentColor" d="M113 136C116.163 137.327 119.586 137 123 137C119.837 135.673 116.414 136 113 136z"/>
<path fill="currentColor" d="M123 136C125.89 137.213 128.874 136.998 132 137C129.11 135.787 126.126 136.002 123 136z"/>
<path fill="currentColor" d="M132 136C134.89 137.213 137.874 136.998 141 137C138.11 135.787 135.126 136.002 132 136z"/>
<path fill="currentColor" d="M35 137C36.2484 137.685 36.5484 137.749 38 138C36.7516 137.315 36.4516 137.251 35 137z"/>
<path fill="currentColor" d="M85 137C86.5061 137.683 87.3148 137.826 89 138C87.494 137.317 86.6852 137.174 85 137z"/>
<path fill="currentColor" d="M96 137L97 138L96 137z"/>
<path fill="currentColor" d="M113 137C116.163 138.327 119.586 138 123 138C119.837 136.673 116.414 137 113 137z"/>
<path fill="currentColor" d="M123 137C125.89 138.213 128.874 137.998 132 138C129.11 136.787 126.126 137.002 123 137z"/>
<path fill="currentColor" d="M132 137C134.89 138.213 137.874 137.998 141 138C138.11 136.787 135.126 137.002 132 137z"/>
<path fill="currentColor" d="M141 137C142.769 137.779 144.036 137.912 146 138C144.231 137.221 142.964 137.088 141 137z"/>
<path fill="currentColor" d="M146 137L147 138L146 137z"/>
<path fill="currentColor" d="M70 138C71.2484 138.685 71.5484 138.749 73 139C71.7516 138.315 71.4516 138.251 70 138z"/>
<path fill="currentColor" d="M73 138C74.2484 138.685 74.5484 138.749 76 139C74.7516 138.315 74.4516 138.251 73 138z"/>
<path fill="currentColor" d="M73 139C76.6115 140.512 80.2294 139.7 84 139C80.3885 137.488 76.7706 138.3 73 139z"/>
<path fill="currentColor" d="M88 138L89 139L88 138z"/>
<path fill="currentColor" d="M92.3333 138.667C92.2778 138.722 92.2222 139.778 92.6667 139.333C92.7222 139.278 92.7778 138.222 92.3333 138.667z"/>
<path fill="currentColor" d="M93 138C94.2484 138.685 94.5484 138.749 96 139C94.7517 138.315 94.4516 138.251 93 138z"/>
<path fill="currentColor" d="M81 139C83.0521 139.874 84.7472 139.953 87 140C84.9479 139.126 83.2528 139.047 81 139z"/>
<path fill="currentColor" d="M87 139C88.2484 139.685 88.5484 139.749 90 140C88.7516 139.315 88.4516 139.251 87 139z"/>
<path fill="currentColor" d="M93 139C95.6127 140.098 98.1645 139.993 101 140C98.3873 138.902 95.8355 139.007 93 139z"/>
<path fill="currentColor" d="M101 139C103.332 139.985 105.457 139.981 108 140C105.668 139.015 103.543 139.019 101 139z"/>
<path fill="currentColor" d="M103 140C105.613 141.098 108.165 140.993 111 141C108.362 139.491 106.016 139.831 103 140z"/>
<path fill="currentColor" d="M109 139C110.139 140.015 110.612 140.309 112 141C111.02 139.217 111.092 139.406 109 139z"/>
<path fill="currentColor" d="M147 139L148 140L147 139z"/>
<path fill="currentColor" d="M90.3333 140.667C90.2778 140.722 90.2222 141.778 90.6667 141.333C90.7222 141.278 90.7778 140.222 90.3333 140.667z"/>
<path fill="currentColor" d="M91.3333 140.667C91.2778 140.722 91.2222 141.778 91.6667 141.333C91.7222 141.278 91.7778 140.222 91.3333 140.667z"/>
<path fill="currentColor" d="M96 140C98.3315 140.985 100.457 140.981 103 141C100.668 140.015 98.5434 140.019 96 140z"/>
<path fill="currentColor" d="M148 140L149 141L148 140z"/>
</svg>